<svg xmlns="http://www.w3.org/2000/svg" width="41.318" height="40.277"><g data-name="Group 3515"><path data-name="Path 60" d="M35.377 22.037c-2.583 3.336-9.145.185-12.448 4.286a7.976 7.976 0 0 0-.341 8.885 8.495 8.495 0 0 0 5.491 3.443c4.5.909 9.782-1.461 11.908-4.862 5.571-8.911-8.151-25.606-8.3-25.531-.104.052 6.899 9.631 3.69 13.779Z" fill="#b1d081"/><path data-name="Path 60-2" d="M13.846 35.812c-1.662-3.857 4.409-7.842 2.43-12.692a8.316 8.316 0 0 0-7.694-4.731 8.507 8.507 0 0 0-5.792 2.932c-3.053 3.358-3.6 9.02-1.651 12.522 5.1 9.176 26.739 5.9 26.747 5.732.006-.114-11.974 1.031-14.04-3.763Z" fill="#6a8e4d"/><path data-name="Path 60-3" d="M11.876 9.787c4.245.52 4.737 7.657 10.018 8.405a8.349 8.349 0 0 0 8.034-4.154 8.113 8.113 0 0 0 .3-6.374A12.042 12.042 0 0 0 19.971.004C9.299-.261 1.383 19.714 1.524 19.804c.1.058 5.076-10.663 10.352-10.017Z" fill="#2d473f"/></g></svg>